<?xml version="1.0" encoding="UTF-8" standalone="no"?>
<!-- Created with Inkscape (http://www.inkscape.org/) -->

<svg
   version="1.1"
   id="svg1"
   width="1365.3333"
   height="1365.3333"
   viewBox="0 0 1365.3333 1365.3333"
   sodipodi:docname="Архимед 1+1.svg"
   inkscape:export-batch-path="/Users/aa/Desktop"
   inkscape:export-batch-name="TL logo"
   inkscape:export-filename="TL logo.png"
   inkscape:export-xdpi="144.00002"
   inkscape:export-ydpi="144.00002"
   inkscape:version="1.4 (e7c3feb1, 2024-10-09)"
   xmlns:inkscape="http://www.inkscape.org/namespaces/inkscape"
   xmlns:sodipodi="http://sodipodi.sourceforge.net/DTD/sodipodi-0.dtd"
   xmlns:xlink="http://www.w3.org/1999/xlink"
   xmlns="http://www.w3.org/2000/svg"
   xmlns:svg="http://www.w3.org/2000/svg">
  <defs
     id="defs1">
    <rect
       x="135.31549"
       y="-89.308221"
       width="1022.9851"
       height="161.02543"
       id="rect8" />
    <rect
       x="109.60554"
       y="77.129827"
       width="1097.4086"
       height="179.9696"
       id="rect7" />
  </defs>
  <sodipodi:namedview
     id="namedview1"
     pagecolor="#ffffff"
     bordercolor="#000000"
     borderopacity="0.25"
     inkscape:showpageshadow="2"
     inkscape:pageopacity="0.0"
     inkscape:pagecheckerboard="0"
     inkscape:deskcolor="#d1d1d1"
     inkscape:zoom="0.73176375"
     inkscape:cx="623.83522"
     inkscape:cy="686.69704"
     inkscape:window-width="2240"
     inkscape:window-height="1098"
     inkscape:window-x="600"
     inkscape:window-y="170"
     inkscape:window-maximized="0"
     inkscape:current-layer="g1" />
  <g
     inkscape:groupmode="layer"
     inkscape:label="Image"
     id="g1">
    <path
       style="fill:#660000;fill-opacity:1"
       d="M 639.3333,1317.138 C 574.09915,1312.4497 500.90644,1295.085 444.82074,1270.9907 378.44109,1242.474 319.50988,1205.0829 269.99998,1160.069 177.1907,1075.6877 112.2419,977.08313 76.741902,866.66662 62.473949,822.28865 54.514889,782.50427 49.134325,728.66662 46.930595,706.61621 46.93322,640.68027 49.138705,618.66663 64.251617,467.8199 126.2497,334.70329 231.86617,226.33095 316.66837,139.31599 431.20396,77.299266 552.53084,52.703065 601.59274,42.756907 642.2638,39.29725 697.23787,40.393654 779.79923,42.04026 847.85405,55.939443 925.33328,86.978744 1025.4607,127.09125 1115.7271,194.96913 1182.17,280.11312 c 55.5374,71.16889 97.1541,157.43778 119.0623,246.80844 20.5085,83.66071 22.7596,172.66203 6.7024,264.99115 -14.7697,84.92597 -51.7912,172.51021 -106.2743,251.42059 -32.6825,47.3355 -88.6331,105.6263 -139.0485,144.8643 -38.4004,29.8868 -96.04902,63.2621 -145.94529,84.494 -18.84051,8.0171 -60.16339,21.7888 -83.72205,27.9022 -57.60113,14.9473 -129.88593,21.1241 -193.61126,16.5442 z m 105.33332,-23.7394 c 55.87078,-6.1508 107.58163,-19.1882 159.87834,-40.3087 73.38082,-29.6355 142.93814,-75.3175 202.47894,-132.9787 47.1145,-45.6272 95.9711,-111.5124 123.5408,-166.59994 41.3439,-82.61006 63.5609,-171.55329 66.3216,-265.5113 2.6572,-90.43527 -16.8145,-185.8102 -54.4425,-266.66665 C 1198.1926,326.24469 1133.5469,245.23966 1053.9999,185.20166 927.65506,89.843 763.96759,46.403988 605.3333,66.135525 512.90218,77.632459 422.36435,110.95517 344.47307,162.14589 248.11527,225.47295 168.88823,319.22775 120.94109,426.66664 55.716991,572.81935 51.367206,742.15878 108.95392,893.33328 c 15.2034,39.91141 44.95252,95.67438 64.98464,121.80992 1.84373,2.4055 2.5991,2.3765 26.31316,-1.0087 30.37875,-4.3366 66.0658,-8.213 93.0816,-10.1108 11.36666,-0.7984 24.26666,-1.7421 28.66666,-2.097 42.20233,-3.40412 57.97487,-4.97449 72.4512,-7.21351 61.65382,-9.53586 115.78902,-16.46751 117.98918,-15.10774 0.71773,0.44358 0.89447,0.14232 0.39275,-0.66948 -0.50172,-0.8118 -5.40268,-3.66511 -10.89103,-6.3407 l -9.97881,-4.8647 -12.98165,4.11568 c -27.93238,8.85564 -42.36225,10.73413 -82.88566,10.7901 -24.12782,0.0333 -17.98888,-1.22866 -66.01097,13.56997 -20.83294,6.41998 -13.94691,8.29778 -118.085,-32.202 -26.76667,-10.40968 -55.53372,-21.56622 -63.92678,-24.79231 -8.39306,-3.22609 -15.59306,-6.31857 -16,-6.87218 -0.40694,-0.5536 -0.56718,-21.17395 -0.3561,-45.82298 l 0.38379,-44.81643 28.28288,-5.60967 c 28.38378,-5.62967 88.31273,-17.79201 99.70808,-20.23534 l 6.09187,-1.3062 -5.13341,-20.15154 c -18.61876,-73.08913 -19.21395,-150.83598 -1.69238,-221.06437 25.30839,-101.43877 82.7619,-186.5769 169.97537,-251.87989 39.45765,-29.54477 91.41243,-54.03515 144.45143,-68.09132 30.04766,-7.9631 76.16945,-14.67088 101.1773,-14.71484 6.69766,-0.0118 13.3972,-0.86017 17.03792,-2.15758 9.08414,-3.23725 21.93358,-3.74772 32.41607,-1.2878 4.9955,1.1723 11.8955,2.15104 15.33333,2.17498 3.43783,0.0239 9.5506,1.25905 13.58393,2.7447 10.04589,3.70031 17.46231,5.8129 30,8.54558 50.79072,11.07018 110.50713,37.47597 153.33332,67.80189 30.65136,21.70473 64.20679,52.35926 85.59749,78.19762 49.3441,59.60369 81.6984,129.18107 94.2424,202.66666 4.8228,28.25306 6.4441,47.93916 6.4787,78.66666 0.084,74.35079 -15.5758,139.07924 -50.4085,208.36386 -6.1839,12.30013 -11.2434,22.65013 -11.2434,23 0,0.34987 0.9255,0.63613 2.0567,0.63613 1.1313,0 9.3813,2.33251 18.3334,5.18336 8.9521,2.85085 21.6765,6.80693 28.2765,8.7913 13.6709,4.1103 24.2266,9.37831 26.2072,13.07916 0.7441,1.39034 1.0042,3.91737 0.5779,5.61563 -1.3803,5.49967 -12.707,9.48712 -56.7851,19.99068 -11.3666,2.70862 -29.2063,7.355 -39.6436,10.3253 -18.8156,5.35463 -18.97,5.43007 -18.1642,8.87422 0.447,1.91052 3.4121,12.47367 6.589,23.4737 13.4663,46.6268 22.2369,88.6666 18.4982,88.6666 -0.3964,0 -2.5564,-1.35 -4.8,-3 -4.4845,-3.2979 -7.5493,-8.6083 -12.2926,-21.2988 -21.3037,-56.9974 -27.5233,-73.48211 -27.8461,-73.80497 -0.2102,-0.21017 -8.20984,7.22717 -17.77702,16.52747 -30.93791,30.0749 -54.44973,46.9482 -99.2303,71.2129 -37.5731,20.3592 -93.11838,37.4153 -145.33332,44.627 -23.64694,3.266 -87.15469,3.236 -110.66666,-0.052 -44.57297,-6.2339 -89.3175,-18.3262 -128.22632,-34.6535 l -14.22633,-5.9697 -13.107,9.6068 c -19.12153,14.0151 -36.64458,24.5739 -47.85697,28.8368 -4.88008,1.8554 -3.95232,0.5779 3.08329,-4.2456 3.48334,-2.3881 9.18334,-6.999 12.66667,-10.2465 l 6.33333,-5.9045 v -15.1509 c 0,-8.3329 -0.36838,-15.1508 -0.81863,-15.1508 -0.45024,0 -9.60024,1.4781 -20.33333,3.2847 -10.73309,1.8066 -27.9147,4.5194 -38.18137,6.0284 -10.26666,1.5091 -20.01666,3.0424 -21.66666,3.4074 l -3,0.6636 v 31.3079 31.308 l 3,-3e-4 c 1.65,-10e-5 7.70278,-0.9001 13.45062,-2 20.49596,-3.922 20.14532,-2.3413 -1.11729,5.0368 -11.13506,3.8638 -39.74157,10.2522 -61.10846,13.6468 l -5.10846,0.8115 11.10846,8.7023 c 13.14717,10.2995 48.02981,33.5632 63.10846,42.0879 78.26005,44.2446 157.206,68.4399 251.33332,77.0286 16.42812,1.499 88.78493,0.6468 105.99999,-1.2483 z m 120.66666,-125.2009 c 0,-0.6246 1.65,-2.9064 3.66667,-5.0707 2.01666,-2.1643 8.76666,-13.6383 15,-25.4978 10.09266,-19.2023 11.70548,-21.5664 14.73288,-21.596 3.09945,-0.03 3.66527,0.879 6.40943,10.3001 9.0018,30.9045 10.93338,36.1776 13.55709,37.0104 1.44866,0.4597 2.63393,1.9955 2.63393,3.4127 0,2.3661 -1.03611,2.5769 -12.66667,2.5769 -11.5358,0 -12.66666,-0.2252 -12.66666,-2.5222 0,-1.5782 1.24742,-2.8352 3.33333,-3.3587 3.33873,-0.838 4.21233,-3.6104 2.52401,-8.0101 -0.63392,-1.652 -2.88228,-2.109 -10.37434,-2.109 -9.5024,0 -9.57541,0.027 -11.14862,4.1954 -1.72988,4.5829 -1.2209,6.4712 1.74431,6.4712 1.05672,0 1.92131,1.2 1.92131,2.6667 0,2.4127 -0.88889,2.6667 -9.33334,2.6667 -5.13333,0 -9.33333,-0.511 -9.33333,-1.1356 z m 34.20466,-22.1978 c -0.27032,-0.7333 -1.29038,-4.4833 -2.26681,-8.3333 -0.97642,-3.85 -2.12173,-7 -2.54514,-7 -1.52023,0 -8.0742,15.1668 -6.8744,15.9083 2.13959,1.3223 12.20321,0.8272 11.68635,-0.575 z m 19.15941,-20.6092 c -2.67214,-4.9929 -1.60745,-7.3879 4.30259,-9.6784 6.08805,-2.3596 54.09155,-23.045 64.62366,-27.8473 15.0143,-6.846 39.2159,-17.1984 40.2064,-17.1984 1.2389,0 4.1699,5.9695 4.1699,8.4928 0,0.9353 -3.9486,3.3222 -8.7746,5.3041 -4.8261,1.9819 -26.57611,11.304 -48.33337,20.7158 -21.75726,9.4117 -42.99482,18.383 -47.19458,19.9362 -7.48098,2.7667 -7.6636,2.7723 -9,0.2752 z m 148.59035,-52.5632 c -0.5081,-3.3885 -1.3811,-6.1609 -1.9399,-6.1609 -0.5588,0 -4.4653,1.5254 -8.681,3.3898 -4.2158,1.8644 -7.8369,3.2144 -8.047,3 -0.2101,-0.2144 -0.8011,-2.633 -1.3132,-5.3748 -0.9253,-4.9537 -0.8907,-5.0023 5.5204,-7.7504 3.5484,-1.521 6.7249,-3.0388 7.059,-3.3729 0.334,-0.334 -1.5872,-2.8547 -4.2693,-5.6015 l -4.8767,-4.9942 19.4619,1.6284 c 10.704,0.8956 19.6873,1.8537 19.9628,2.1293 0.4062,0.4062 -17.0302,23.8592 -20.8966,28.1072 -0.5811,0.6384 -1.4723,-1.6116 -1.9804,-5 z m 30.9926,-4.8276 c 0.391,-1.4954 1.8187,-2.6666 3.2503,-2.6666 3.3623,0 3.4243,-0.2208 6.363,-22.6667 2.4901,-19.0188 2.4898,-19.3693 -0.014,-21.5471 -1.4002,-1.2175 -2.5458,-3.1675 -2.5458,-4.3333 0,-1.8289 2.3853,-2.1196 17.3939,-2.1196 16.6899,0 17.5264,0.1325 20.6667,3.2727 5.6878,5.6879 3.3232,17.1104 -4.4107,21.3068 -2.1978,1.1925 -2.8141,2.0016 -1.549,2.0338 3.8213,0.097 7.8991,5.8817 7.8991,11.2055 0,6.9405 -2.8367,11.703 -9.0509,15.1955 -4.7153,2.6502 -7.1882,2.9857 -22.0058,2.9857 -16.0372,0 -16.6663,-0.1049 -15.9963,-2.6667 z m 29.0307,-3.9915 c 2.0457,-0.7778 4.2802,-3.229 5.4113,-5.9362 3.4318,-8.2134 -1.4648,-14.688 -10.4506,-13.8188 -4.193,0.4056 -4.2912,0.5711 -5.3266,8.9753 -0.5802,4.7091 -0.7491,9.3591 -0.3752,10.3333 0.8038,2.0947 5.8536,2.3046 10.7411,0.4464 z m 4.5922,-28.8549 c 5.4315,-6.9051 2.1893,-15.1536 -5.9563,-15.1536 -4.2344,0 -4.3221,0.1262 -5.2487,7.5424 -0.5183,4.1483 -1.2517,8.3483 -1.6296,9.3333 -0.5053,1.3167 0.7372,1.791 4.6919,1.791 4.2232,0 5.9731,-0.755 8.1427,-3.5131 z m -963.3626,-32.6909 c -0.46288,-0.7489 -0.32387,-1.8175 0.3089,-2.3747 1.33456,-1.17505 21.4058,-3.74007 37.81715,-4.83285 6.23334,-0.41506 12.83334,-1.05971 14.66667,-1.43256 2.19057,-0.44551 2.87623,-0.22926 2,0.63079 -0.73333,0.71978 -10.93333,2.81001 -22.66667,4.64494 -30.79587,4.81608 -31.20258,4.85868 -32.12605,3.36438 z m 568.12602,102.2847 c 70.12598,-9.0683 133.28781,-33.2195 187.92239,-71.856 14.92389,-10.5539 36.41949,-28.7823 47.41093,-40.2047 7.09937,-7.37774 7.20572,-7.59599 3.33334,-6.84042 -24.10256,4.70284 -85.86021,13.18605 -100,13.73628 l -17.33333,0.67454 -33.33333,12.0251 c -18.33333,6.6139 -53.43333,19.3976 -78,28.4083 -67.3368,24.6982 -95.76296,33.0131 -130.64856,38.2158 -14.95967,2.2311 -22.20506,2.5681 -42.68476,1.9854 -13.56667,-0.386 -30.30056,-1.6606 -37.18644,-2.8325 -6.88587,-1.1719 -12.77656,-1.8739 -13.09043,-1.5601 -1.62087,1.6209 39.23133,14.8753 61.6102,19.9893 18.45984,4.2184 50.65724,8.9984 72,10.6891 13.86666,1.0985 64.64017,-0.4438 79.99999,-2.4301 z m 305.30458,-23.0807 c -0.9443,-2.75 -6.5975,-23 -12.5627,-45 -16.5626,-61.08321 -16.7653,-61.67675 -23.549,-68.94287 -3.2228,-3.45192 -5.859,-5.55192 -5.8582,-4.66667 0,1.33795 13.5361,41.95094 33.4189,100.27624 7.0105,20.5651 8.1021,23.3333 9.2007,23.3333 0.5869,0 0.2946,-2.25 -0.6497,-5 z m -758.99365,-17.6954 c 77.69525,-10.8131 188.19108,-26.6955 188.6052,-27.1096 0.18426,-0.1843 -0.032,-2.5971 -0.48071,-5.3618 -0.69501,-4.2829 -1.23159,-4.9238 -3.62557,-4.3305 -1.54541,0.383 -13.90983,2.2464 -27.4765,4.1407 -13.56666,1.8944 -37.26666,5.2096 -52.66666,7.3671 -15.4,2.1575 -50.8,6.9535 -78.66666,10.6578 -59.25992,7.8773 -95.57999,13.1339 -96.39763,13.9516 -0.31972,0.3197 0.83895,2.3778 2.57483,4.5736 2.07873,2.6294 4.40016,4.0175 6.80037,4.0661 2.00433,0.04 29.60432,-3.5392 61.33333,-7.955 z m 367.68459,-6.7431 c 9.31436,-4.9645 26.23199,-18.4021 35.33782,-28.0687 7.11084,-7.5487 6.58776,-7.2299 -8.17004,4.9787 -5.22685,4.324 -15.55794,11.7618 -22.95798,16.5285 -11.86596,7.6433 -15.47276,10.6667 -12.72528,10.6667 0.44735,0 4.27932,-1.8474 8.51548,-4.1052 z m -66.99551,-20.9721 c 20.53092,-20.7378 34.25752,-57.60221 46.39601,-124.602 3.2155,-17.74832 3.61907,-25.07909 0.85032,-15.44575 -0.70477,2.4521 -4.29331,14.65836 -7.97454,27.12503 -3.68123,12.46666 -8.26891,28.31516 -10.19485,35.21888 -6.95201,24.92024 -22.77671,60.80044 -34.30478,77.78114 -2.86267,4.2166 -4.5825,7.6666 -3.82184,7.6666 0.76066,0 4.83302,-3.4847 9.04968,-7.7439 z m -32.35581,-7.1342 c 7.37402,-6.7394 19.19487,-22.2753 26.42062,-34.72406 8.04317,-13.857 19.72094,-42.3774 45.20276,-110.39779 14.6976,-39.23333 27.86224,-73.58333 29.25476,-76.33333 1.39253,-2.75 2.04937,-5 1.45966,-5 -2.04984,0 -19.3575,18.03263 -24.3089,25.32713 -11.65792,17.17468 -26.87558,52.41629 -36.08164,83.55921 -13.77587,46.60197 -15.99313,53.85421 -19.90748,65.11365 -6.0763,17.47818 -19.04829,43.37319 -26.00799,51.91779 -3.322,4.0786 -5.48144,7.4155 -4.79877,7.4155 0.68268,0 4.62782,-3.0951 8.76698,-6.8781 z m 117.37015,-13.3933 c 23.89523,-19.1485 59.87953,-57.85383 93.31851,-100.37493 8.64172,-10.98883 15.25913,-18.48883 14.70535,-16.66666 -2.46041,8.09582 -13.36241,33.40808 -20.81852,48.33641 -12.891,25.80987 -27.73596,50.25441 -42.10038,69.32488 -3.18228,4.2248 -5.78597,7.9127 -5.78597,8.1952 0,0.2826 6.09935,-2.1338 13.55412,-5.3697 7.45477,-3.2359 21.70476,-8.6713 31.66666,-12.0786 9.9619,-3.4074 19.24258,-7.14769 20.62372,-8.31185 8.90607,-7.50683 24.30003,-36.40707 33.44209,-62.78331 2.66884,-7.7 5.42115,-14.56999 6.11625,-15.26666 1.66771,-1.67147 1.61884,20.20943 -0.0803,35.93333 -2.70356,25.01944 -3.01027,29.99998 -1.84739,29.99921 0.65531,-4.3e-4 3.53064,-5.85043 6.38963,-13 2.85899,-7.14956 9.29507,-21.80073 14.30241,-32.55813 9.77101,-20.99137 11.74914,-27.32716 11.80017,-37.79503 0.0859,-17.62437 -20.59224,-37.42808 -58.673,-56.19183 -31.21487,-15.3807 -66.1449,-31.13168 -69.02728,-31.12644 -4.88253,0.009 -10.43654,3.55291 -13.60689,8.68265 -12.76817,20.65931 -20.60915,49.04282 -27.31044,98.86083 -1.85912,13.82081 -3.65453,25.87874 -3.98982,26.79541 -0.33529,0.91666 -0.17844,1.66153 0.34854,1.65525 0.52699,-0.006 3.61273,-4.35628 6.85722,-9.66667 10.74036,-17.57922 29.76978,-46.43085 30.2845,-45.91612 0.2785,0.27849 -2.57653,7.05112 -6.3445,15.05028 -3.76797,7.99916 -13.89928,31.94392 -22.51402,53.21059 -8.61474,21.26666 -17.81433,43.61669 -20.44353,49.66669 -2.6292,6.05 -4.34667,11 -3.8166,11 0.53008,0 6.35732,-4.3222 12.94943,-9.6048 z M 309.12623,984.20703 c 2.28233,-2.28234 2.44335,-5.08849 2.23435,-38.94026 l -0.22524,-36.48069 -18.56768,-6.33046 c -10.21222,-3.48176 -25.16768,-8.40809 -33.23434,-10.9474 -8.06667,-2.53931 -25.16667,-7.9201 -38,-11.95729 -26.12102,-8.21733 -76.53809,-23.552 -77.42431,-23.5491 -0.31663,0.001 -0.69556,15.54442 -0.84206,34.54085 l -0.26638,34.53897 16.93304,6.86415 c 47.6648,19.32191 141.27445,54.55194 145.26637,54.67107 0.91667,0.0274 2.77348,-1.05707 4.12625,-2.40984 z m 41.49109,-3.65901 c 15.69602,-3.74006 20.39364,-5.36675 21.50724,-7.44753 0.78364,-1.46425 1.13367,-2.95341 0.77784,-3.30924 -0.35584,-0.35583 -4.75445,0.5393 -9.7747,1.98919 -5.02025,1.44988 -14.97772,4.0105 -22.12772,5.69026 -10.50894,2.46888 -13,3.51481 -13,5.45834 0,1.32233 0.57035,2.40423 1.26745,2.40423 0.69709,0 10.30454,-2.15336 21.34989,-4.78525 z m 62.71416,-10.54713 c 2.12616,-1.09948 6.62265,-5.86252 9.99221,-10.58454 l 6.12648,-8.58548 -3.39177,-16.40043 c -1.86547,-9.02024 -3.39348,-19.7072 -3.39559,-23.7488 -0.003,-6.67715 -0.3685,-7.59194 -3.99617,-10.01503 -2.19578,-1.46666 -3.99406,-3.12518 -3.99616,-3.68558 -0.002,-0.56041 2.34629,0.53632 5.21866,2.43717 4.6255,3.061 5.32939,4.2444 6.15758,10.35225 0.51429,3.79289 3.25902,13.49616 6.09939,21.56283 2.84037,8.06666 5.16946,16.35856 5.17575,18.42643 0.006,2.06787 -1.84008,6.45087 -4.10306,9.74 -3.80404,5.52898 -4.40486,9.83357 -1.37254,9.83357 1.88529,0 16.14789,-16.05094 18.41613,-20.72526 1.85019,-3.81282 1.66999,-4.9432 -2.97569,-18.66667 -3.87429,-11.44475 -5.02678,-17.06226 -5.32212,-25.9414 -0.20734,-6.23334 -0.83505,-12.83334 -1.3949,-14.66667 -0.97476,-3.19203 -0.87592,-3.16376 2.33149,0.66667 2.56037,3.05771 3.37967,5.60803 3.47789,10.82609 0.0887,4.71085 2.0124,11.64453 6.20804,22.37566 6.72741,17.20663 6.97096,18.75043 4.05785,25.72248 -1.88304,4.50675 -1.6396,9.80952 0.44487,9.69043 1.50712,-0.0861 9.63333,-11.75758 11.80511,-16.95538 2.82511,-6.76144 1.86456,-10.87428 -8.63957,-36.99262 l -9.11596,-22.66666 -7.90305,-1.0471 c -13.27016,-1.75821 -35.61399,-6.32398 -40.94651,-8.36708 -2.77391,-1.06279 -8.0531,-4.17925 -11.73154,-6.92546 -8.20479,-6.12544 -12.47328,-14.4431 -14.53355,-28.3203 -0.816,-5.49631 -3.3969,-17.19631 -5.73533,-26 -4.11941,-15.50873 -4.23153,-16.64969 -3.6039,-36.67339 1.32664,-42.32425 0.4712,-70.27656 -2.59106,-84.66528 -3.31621,-15.58198 -5.14337,-36.66805 -3.17737,-36.66805 0.72404,0 2.43813,3.3 3.80911,7.33334 2.32657,6.84466 3.76416,8.72996 4.82933,6.33333 0.24445,-0.55 5.54445,-3.64086 11.77778,-6.86859 15.89083,-8.22853 26.36735,-15.92637 38.79576,-28.50597 11.75969,-11.90276 21.86865,-24.76906 30.31239,-38.58051 6.65413,-10.88415 13.92782,-25.12006 13.20444,-25.84344 -0.29077,-0.29077 -5.11776,-1.70236 -10.72664,-3.13687 -19.0507,-4.87235 -18.67059,-5.95748 2.41405,-6.89166 19.37172,-0.85828 32.69037,-3.16632 44.78037,-7.76016 3.88338,-1.47557 7.27807,-2.46545 7.54378,-2.19975 0.2657,0.26571 -2.77024,4.00147 -6.74655,8.3017 l -7.22966,7.81859 9.98666,20.66667 c 5.49266,11.36666 11.84099,23.25135 14.1074,26.4104 8.48623,11.82862 26.17681,21.46747 45.92666,25.02351 22.12822,3.98428 38.42631,-0.28905 53.97277,-14.15154 8.78419,-7.83271 17.41894,-21.47204 21.11834,-33.35825 3.34963,-10.76235 3.2041,-16.036 -0.65254,-23.6467 -1.87256,-3.69534 -3.59946,-10.15508 -4.17634,-15.62234 -1.20886,-11.45661 -1.97716,-13.56884 -7.62855,-20.97257 -2.46398,-3.22799 -5.1326,-7.62709 -5.93027,-9.77579 -0.79767,-2.1487 -2.45839,-6.73986 -3.6905,-10.20259 -2.9024,-8.15697 -11.38561,-17.48207 -26.53857,-29.17235 -14.09915,-10.87728 -35.94424,-30.54166 -34.98938,-31.49652 0.35863,-0.35863 4.95539,1.33149 10.21503,3.75582 10.42858,4.80684 23.71177,14.15905 34.8874,24.56294 3.92642,3.65529 8.61758,7.95838 10.42478,9.56242 l 3.28582,2.91643 0.0719,-7.5831 c 0.0509,-5.36331 1.17978,-10.02758 3.85652,-15.93375 3.38758,-7.47464 3.6964,-9.29965 2.94383,-17.39705 -1.00431,-10.80592 0.21772,-15.6453 6.53528,-25.88055 l 4.75962,-7.71121 -2.99577,-5.33027 c -1.64768,-2.93165 -3.79083,-5.33027 -4.76255,-5.33027 -0.97171,0 -7.31123,2.34626 -14.08781,5.21391 -15.23931,6.44883 -21.42547,7.65933 -48.32104,9.45542 -11.73334,0.78356 -25.83334,2.27228 -31.33333,3.30827 -5.5,1.03599 -15.7,2.57563 -22.66667,3.42142 -23.316,2.83071 -52.36193,14.20781 -65.91387,25.81803 -12.25324,10.49761 -26.24342,25.6613 -32.87317,35.63063 -9.44231,14.19864 -13.11936,24.39546 -14.92556,41.39001 -0.84344,7.93593 -1.86353,14.42897 -2.26687,14.42897 -0.40334,0 -2.18622,-3.75 -3.96196,-8.33333 -1.77574,-4.58333 -3.37866,-8.54664 -3.56204,-8.80734 -0.79646,-1.13226 -16.63809,12.30661 -25.4669,21.60423 -19.13347,20.14947 -33.14556,41.81497 -51.34544,79.39034 -6.53219,13.48632 -14.34435,27.86091 -17.36037,31.94354 -6.57221,8.89648 -7.93391,17.33354 -4.47722,27.74068 1.45689,4.38626 2.35615,13.19139 2.77954,27.21594 1.05104,34.81431 5.2825,51.91211 28.02679,113.24592 5.30284,14.3 10.9693,30.5 12.59214,36 1.62284,5.5 5.2258,13.9 8.00659,18.66667 2.78078,4.76666 5.45185,11.06666 5.93569,14 0.48385,2.93333 2.1692,8.18761 3.74523,11.67617 2.46928,5.46579 4.29988,7.18376 13.23882,12.42431 5.70533,3.3448 10.74119,7.24052 11.19081,8.65715 1.01753,3.20595 2.73374,3.31196 3.92371,0.24236 0.83871,-2.16353 1.05427,-2.13927 2.96205,0.33334 3.10848,4.02879 11.08537,21.79624 11.08537,24.69117 0,1.39889 -1.2,5.58786 -2.66667,9.30883 -3.25973,8.27001 -3.2596,8 -0.004,8 3.22389,0 12.23628,-7.90396 16.05178,-14.07757 3.01383,-4.87647 3.17501,-2.59908 -2.01553,-28.47703 -1.17645,-5.8653 -3.07815,-11.05334 -4.67452,-12.7526 -4.73212,-5.03711 -2.93263,-6.78323 2.03179,-1.97153 3.95494,3.83328 5.6828,7.58883 10.62502,23.09368 6.48773,20.35345 6.51597,19.65516 -1.18361,29.26304 -3.38488,4.22381 -3.74098,5.28572 -2.11692,6.31291 2.64203,1.67104 3.46538,1.59614 7.95067,-0.72329 z m -68.44261,-94.88983 c -1.82086,-1.82086 -0.70095,-2.8292 6.77778,-6.10258 6.90328,-3.0215 16.33333,-5.62317 16.33333,-4.50622 0,0.46198 -20.83772,11.49769 -21.71003,11.49769 -0.28171,0 -0.91219,-0.4 -1.40108,-0.88889 z M 305.33332,707.72915 c 0,-2.4355 -1.5,-9.15434 -3.33334,-14.93075 -3.5619,-11.22273 -4.20085,-16.79844 -1.92502,-16.79844 0.77456,0 2.68042,2.85 4.23522,6.33333 3.26707,7.31943 5.01051,27.35971 2.51442,28.90238 -0.98515,0.60886 -1.49128,-0.58125 -1.49128,-3.50652 z M 527.00121,522.63022 c 17.31626,-21.85953 22.59412,-53.04577 12.3864,-73.18975 -1.88791,-3.7256 -2.88461,-6.77383 -2.21489,-6.77383 2.2767,0 9.8785,9.85154 13.32807,17.27249 2.88147,6.19879 3.44215,9.33797 3.46815,19.4177 0.0281,10.88259 -0.3768,12.85236 -4.26672,20.75801 -4.37744,8.89644 -13.63349,19.20838 -21.82285,24.31233 l -4.54607,2.83331 z m -178.6679,442.59586 c 6.41667,-1.58779 11.66667,-3.47827 11.66667,-4.20106 0,-1.40229 -1.22093,-1.18197 -17.66667,3.18797 -5.68333,1.51016 -10.33333,3.32046 -10.33333,4.02287 0,0.70241 1.05,0.96212 2.33333,0.57712 1.28334,-0.385 7.58334,-1.9991 14,-3.5869 z m 294.16183,-19.3206 c 5.75208,-24.69937 13.36328,-51.90959 21.78916,-77.89667 5.62265,-17.34139 20.7135,-54.82656 25.09783,-62.34219 1.39034,-2.38333 2.01302,-4.33333 1.38373,-4.33333 -1.19272,0 -13.6327,10.70068 -17.82563,15.33333 -19.28437,21.30678 -32.74724,72.09426 -36.40466,137.33332 -0.49334,8.8 -0.54122,15.67555 -0.1064,15.27899 0.43483,-0.39656 3.16452,-10.91461 6.06597,-23.37345 z m 379.32826,-3.89417 0.908,-27.32197 -6.2692,-16.3447 c -6.8301,-17.80702 -7.7089,-19.39078 -11.7493,-21.17307 -2.0951,-0.92421 -1.5743,-1.10304 2.287,-0.78525 5.3456,0.43993 6.2159,-0.95643 3.6198,-5.80736 -1.0547,-1.97076 -0.9462,-2.57901 0.46,-2.57901 3.337,0 5.9073,4.54602 7.3608,13.01847 0.788,4.59349 3.7112,12.99349 6.4961,18.66666 l 5.0633,10.31487 -0.292,17.53986 c -0.238,14.29603 0.066,17.67726 1.6441,18.28282 2.7676,1.06204 6.2033,-11.64608 6.3825,-23.60795 0.1214,-8.10608 -0.5926,-11.36036 -4.7275,-21.54807 -2.6789,-6.6 -5.2414,-14.31863 -5.6945,-17.15252 -0.6031,-3.77127 -2.5492,-6.87774 -7.2596,-11.58813 -6.8715,-6.87153 -8.4486,-7.49946 -33.38629,-13.29322 -15.21617,-3.53516 -21.43365,-6.50031 -25.76429,-12.28715 -10.09165,-13.485 -27.63561,-47.43823 -36.78647,-71.1937 -15.66119,-40.6562 -24.41921,-57.64066 -36.45739,-70.70197 -6.31342,-6.85001 -18.11713,-16.25962 -24.53789,-19.56098 l -4.2127,-2.16604 -1.45396,4.17083 c -0.79968,2.29395 -1.45731,5.43129 -1.4614,6.97186 -0.0125,4.70055 -2.69615,12.80103 -4.24095,12.80103 -1.0138,0 -1.10751,-2.12723 -0.30834,-7 0.63142,-3.84999 1.15392,-13.29999 1.16111,-20.99999 0.0113,-12.09421 -0.56662,-15.81505 -4.24533,-27.33334 -5.55539,-17.39432 -18.75672,-44.32387 -27.38408,-55.86112 -1.83899,-2.45924 -2.00759,-2.44117 -6.21758,0.66667 -7.3718,5.44189 -20.36772,35.69482 -22.16758,51.6034 -1.37058,12.11439 2.6399,24.67365 12.21663,38.25772 5.89022,8.35494 12.03539,13.67864 24.78355,21.4705 6.28234,3.83986 8.29234,6.04464 11.66666,12.79727 3.58036,7.16491 5.41315,15.73223 3.36557,15.73223 -0.39111,0 -2.86465,-2.15355 -5.49676,-4.78566 -5.94361,-5.9436 -12.26135,-9.86949 -15.89304,-9.87603 -1.52217,-0.003 -4.15113,1.46774 -5.84213,3.26773 -4.48976,4.77913 -3.28167,13.79009 3.75185,27.98432 10.10011,20.38287 25.92973,38.34307 58.53955,66.41865 7.45873,6.42163 19.08612,17.96716 25.83865,25.65673 6.75252,7.68957 12.44571,13.81263 12.65153,13.60681 0.20582,-0.20581 -0.73882,-4.70134 -2.09921,-9.99005 -1.36038,-5.28871 -2.1494,-9.61584 -1.75337,-9.61584 2.32827,0 19.17568,28.38247 19.19846,32.34324 0.009,1.64455 0.6277,8.74514 1.37387,15.77909 l 1.35667,12.78901 23.54252,24.09847 c 18.45505,18.89087 25.43928,25.13124 32.31991,28.87766 4.82757,2.62855 9.18903,4.77919 9.69203,4.77919 1.0683,0 0.1336,-4.66673 -2.80148,-13.98751 -1.56294,-4.9633 -4.66684,-9.38535 -12.215,-17.4024 -12.60181,-13.38462 -23.06847,-26.10568 -22.19662,-26.97752 0.36325,-0.36325 2.19701,0.34633 4.07503,1.57686 3.34084,2.189 3.40114,2.1713 2.79225,-0.81939 -1.59764,-7.84705 -2.0483,-14.39004 -0.99114,-14.39004 0.64018,0 4.06332,2.7 7.60697,6 3.54365,3.3 6.62695,6 6.85178,6 0.22483,0 0.45615,-2.25 0.51405,-5 l 0.10526,-5 1.40188,4 c 0.77104,2.2 4.23514,8.2 7.69801,13.33333 11.11001,16.46946 12.00571,18.99552 13.32231,37.57346 l 1.1905,16.79976 5.0257,5.14672 c 2.7641,2.8307 5.4098,5.14673 5.8793,5.14673 0.4696,0 1.2624,-12.29489 1.7619,-27.32197 z m -39.15679,1.63294 c 0,-1.99682 3.61555,-5.8097 4.58411,-4.83431 0.28582,0.28784 -0.62868,1.93981 -2.03222,3.67105 -1.73841,2.14429 -2.55189,2.51511 -2.55189,1.16326 z m -442.60423,6.97998 c 15.33365,-10.41288 31.26633,-36.94654 49.21315,-81.95762 3.80113,-9.53333 10.77434,-25.37812 15.49603,-35.21065 4.72168,-9.83252 8.34678,-18.11541 8.05578,-18.4064 -1.45685,-1.45686 -23.49404,30.80746 -23.49404,34.39729 0,0.56169 -4.54423,10.80583 -10.09829,22.76474 -10.62529,22.87818 -16.8349,33.83946 -34.62573,61.12169 -11.7634,18.03916 -14.46839,22.66666 -13.24973,22.66666 0.4327,0 4.34898,-2.41907 8.70283,-5.37571 z m -200.72907,2.60253 c 14.84762,-3.96704 23.33334,-6.77901 23.33334,-7.73213 0,-0.58248 -6.89863,0.79293 -15.33029,3.05646 -8.43166,2.26354 -15.33166,4.56552 -15.33333,5.11552 -0.004,1.31671 0.97605,1.2579 7.33028,-0.43985 z m 7.26453,-14.0105 c 10.11991,-3.06234 16.33791,-5.93604 12.66881,-5.85501 -2.85461,0.063 -23.90023,6.73892 -25.13408,7.97277 -1.99829,1.99829 -0.0339,1.66455 12.46527,-2.11776 z m 142.6954,-7.8347 c 2.55441,-3.07788 -1.6762,-13.71707 -8.523,-21.43376 -5.164,-5.82009 -5.98924,-6.31066 -6.87101,-4.08457 -0.56528,1.42709 -0.24095,4.33324 0.74401,6.66667 0.96038,2.27519 3.00065,7.88671 4.53393,12.47004 2.26105,6.75881 3.32708,8.33334 5.64203,8.33334 1.56984,0 3.58315,-0.87828 4.47404,-1.95172 z m -146.95993,-4.69674 c 0.91667,-0.01 1.66667,-0.61821 1.66667,-1.35154 0,-0.73334 -2.1,-1.33334 -4.66667,-1.33334 -3.40889,0 -4.66666,0.58096 -4.66666,2.15551 0,1.58467 0.79449,1.9426 3,1.35154 1.65,-0.44218 3.75,-0.81216 4.66666,-0.82217 z m 548.3333,-22.6925 c 38.5557,-4.46486 34.67539,-3.52221 34.60814,-8.4074 -0.1127,-8.18776 -3.61409,-13.98999 -19.57945,-32.44558 -18.55003,-21.4434 -26.85088,-29.39392 -49.02868,-46.95948 -35.93441,-28.46124 -49.09727,-46.95493 -60.66908,-85.23947 -3.17121,-10.49172 -5.89128,-16.28513 -11.54307,-24.58533 -7.70043,-11.30881 -21.82925,-28.09148 -22.81743,-27.10329 -0.31333,0.31333 -3.51974,7.35029 -7.12535,15.63768 -11.80344,27.1299 -27.68207,50.28774 -48.08995,70.13574 l -7.22341,7.02524 0.79312,7.20554 c 0.59705,5.42422 1.60259,7.87917 4.06748,9.9304 1.8009,1.49868 3.76607,2.74483 4.36705,2.76922 0.60098,0.0244 5.64314,1.93872 11.2048,4.25405 6.82956,2.84315 12.79645,6.63034 18.38138,11.66666 6.08886,5.49076 12.45097,9.38181 24.12853,14.75697 19.39095,8.92561 45.20776,23.06103 58.95164,32.27765 20.63761,13.83956 34.50577,31.86677 35.96008,46.7445 l 0.618,6.32213 4.83143,-0.64159 c 2.6573,-0.35287 15.33144,-1.85751 28.16477,-3.34364 z m -556.00807,-4.94458 c 0.37113,-0.41042 -0.11551,-1.02749 -1.0814,-1.37128 -5.43865,-1.93578 -8.4254,-6.62018 -10.42032,-16.34318 -3.70131,-18.03968 -15.81229,-47.96132 -20.70106,-51.14445 -3.39117,-2.20803 -20.74735,-6.18603 -26.99757,-6.18779 -3.70648,-0.001 -119.53082,23.84761 -120.68042,24.84854 -0.30556,0.26603 -0.30556,0.72776 0,1.02606 0.30555,0.29829 18.55555,5.73818 40.55555,12.08864 48.60903,14.03134 103.7991,31.35241 114.66666,35.98744 6.71998,2.86608 9.27872,3.28642 15.99189,2.62711 4.39554,-0.43169 8.29554,-1.12068 8.66667,-1.53109 z m 708.77776,-6.0582 c 0.79,-1.64427 4.2912,-8.08959 7.7805,-14.32293 34.9666,-62.46481 53.3488,-139.85628 50.9884,-214.66665 -3.4627,-109.74148 -44.497,-204.69014 -122.20189,-282.7611 -22.75918,-22.86639 -34.70424,-32.6302 -62.67003,-51.22605 -24.26363,-16.13409 -41.5483,-25.75646 -64.55242,-35.93628 -17.41451,-7.7063 -51.58624,-19.71566 -52.7599,-18.542 -0.37224,0.37224 3.35641,4.37924 8.28589,8.90446 6.9584,6.38775 10.01511,10.46391 13.66887,18.22766 2.58841,5.5 6.35275,12.98398 8.36521,16.63107 3.22983,5.85327 3.65902,8.04281 3.65902,18.66667 0,14.89298 -2.30451,19.26381 -14.89308,28.24682 -4.75912,3.39604 -9.2051,7.62687 -9.87994,9.40183 -0.67484,1.77496 -1.22698,7.12759 -1.22698,11.89473 0,4.76713 -0.60214,9.79263 -1.3381,11.16778 -0.73595,1.37514 -5.23595,5.06295 -10,8.19513 -7.09883,4.66722 -8.6619,6.34148 -8.6619,9.2781 0,1.97077 -2.1,6.70381 -4.66666,10.51786 -3.914,5.81618 -4.66667,8.10647 -4.66667,14.2002 0,4.01835 -0.94288,9.0889 -2.10968,11.34524 -2.01674,3.89994 -1.96903,4.23478 1.08292,7.60045 23.6146,26.04198 27.93024,31.97402 36.39308,50.02396 6.83197,14.57153 9.4673,25.70846 11.95867,50.53729 l 1.87171,18.65335 6.82463,11.48642 c 10.26201,17.27184 18.99662,36.13124 25.93139,55.98996 3.4258,9.81028 7.63251,20.06061 9.34824,22.77851 1.71574,2.7179 7.86707,8.86939 13.66964,13.66996 23.95123,19.81534 32.1174,33.82109 53.63999,91.99767 6.67602,18.04557 28.11864,60.00833 33.77248,66.09201 1.55473,1.67294 6.15457,3.9397 10.22186,5.03724 15.39342,4.15387 35.52125,10.39702 38.72835,12.0126 4.5237,2.27875 11.7502,9.55767 14.2085,14.31162 2.2979,4.44356 5.7915,17.10866 5.7915,20.99521 0,3.47625 1.665,3.27819 3.4364,-0.40879 z M 522.9051,878.70192 c 11.77357,-3.63649 30.25783,-16.24193 43.36875,-29.57557 10.43325,-10.61048 20.39278,-22.59606 20.39278,-24.54125 0,-0.49949 -4.05306,2.91452 -9.0068,7.58668 -12.70411,11.98198 -31.01046,26.39674 -40.00891,31.50375 -12.04856,6.83809 -26.38963,10.85833 -40.26016,11.28616 -6.62588,0.20438 -12.0494,0.68044 -12.05226,1.05792 -0.003,0.37749 2.2448,1.69664 4.9948,2.93146 7.02288,3.15345 21.92449,3.03947 32.5718,-0.24915 z m -95.0047,-16.00616 c -2.62144,-1.38582 -9.82144,-3.80207 -16,-5.36945 -6.17857,-1.56738 -13.8279,-4.28945 -16.99852,-6.04904 -7.11904,-3.95083 -6.63429,-1.31371 0.71003,3.86267 5.53721,3.90272 25.75361,10.062 33.05473,10.07071 l 4,0.005 z m 75.82245,-15.42689 c 20.75568,-4.16929 41.81019,-12.92018 58.38971,-24.26852 7.30174,-4.99789 18.14153,-15.0004 16.25604,-15.0004 -0.45164,0 -7.87584,3.31481 -16.49823,7.36623 -35.74821,16.79711 -52.1585,21.27866 -77.8704,21.26595 -20.96998,-0.0104 -29.73206,-1.90101 -46.1929,-9.96732 -11.66616,-5.71678 -26.67332,-18.51666 -35.90936,-30.62775 -7.7426,-10.15277 -7.08189,-6.85572 0.96425,4.81178 12.50809,18.13763 28.60513,33.41043 42.89958,40.70291 14.38023,7.33625 38.20306,9.68605 57.96131,5.71712 z m 5.45375,-26.95001 c 1.9836,-0.73378 -2.86227,-1.78355 -15.68398,-3.39763 -10.20497,-1.28466 -23.68605,-3.82345 -29.95796,-5.64174 -12.13351,-3.51762 -35.8959,-13.96126 -37.43602,-16.45323 -0.50749,-0.82113 -1.50818,-1.49297 -2.22375,-1.49297 -2.11998,0 6.74601,7.1932 17.10717,13.87947 9.71703,6.2706 23.15339,12.04387 33.01791,14.18695 6.01006,1.3057 30.78283,0.54452 35.17663,-1.08085 z M 293.76935,804.33329 c -15.49764,-42.1294 -17.78547,-53.39572 -18.61461,-91.66667 -0.33364,-15.39999 -0.95142,-32.19999 -1.37283,-37.33333 l -0.76621,-9.33333 20.14021,-40.24558 c 25.14776,-50.25199 36.14465,-67.18702 57.44771,-88.46853 8.468,-8.45944 18.78138,-18.18792 22.91863,-21.61885 5.88298,-4.87862 9.0286,-9.05724 14.43441,-19.17455 9.54956,-17.87258 16.13717,-27.22435 27.71093,-39.33848 15.70745,-16.4408 39.19754,-30.90535 63.34522,-39.00624 23.43035,-7.86025 66.04156,-14.10654 96.4163,-14.13348 16.7821,-0.0149 28.0303,-2.3875 29.5021,-6.22297 1.20302,-3.13502 -4.89912,-17.85129 -11.66586,-28.13403 -10.41411,-15.8253 -10.13408,-22.6157 1.65227,-40.06575 4.80874,-7.1195 6.90166,-11.71855 7.77513,-17.08532 0.65735,-4.03893 2.42436,-9.33235 3.92669,-11.76317 2.97137,-4.80778 11.44514,-12.70743 19.57288,-18.24678 3.21363,-2.1902 6.78514,-6.56403 9.52658,-11.66667 l 4.3856,-8.16291 -3.81908,0 c -2.10049,0 -10.67401,1.23171 -19.05227,2.73714 -91.70655,16.47808 -173.95243,61.06901 -237.32893,128.67169 -58.28189,62.16834 -96.75055,142.98461 -109.12707,229.25782 -9.44304,65.82473 -5.63971,115.70459 13.44535,176.33332 l 5.56122,17.66666 h 4.38389 4.38389 z m 233.14345,-6.3611 c 14.67711,-3.05129 25.6985,-6.92318 40.07772,-14.07959 23.19332,-11.54311 37.93222,-22.29829 58.12622,-42.41552 10.4214,-10.38177 28.21655,-31.91039 28.21655,-34.13645 0,-0.44922 -8.25,6.29315 -18.33333,14.98306 -24.39776,21.02619 -35.06485,29.39106 -48.68468,38.17734 -25.63937,16.54018 -55.53725,28.58839 -85.54509,34.47285 -8.4873,1.66434 -15.43267,3.47607 -15.43417,4.02607 -0.005,1.83249 31.57338,1.05189 41.57678,-1.02776 z m 95.44513,-20.58092 c 45.43827,-29.38465 85.56339,-94.56631 104.40539,-169.60244 2.14682,-8.54946 3.9033,-16.33874 3.9033,-17.30951 0,-4.87471 -8.79243,12.51201 -22.89037,45.26491 -32.2265,74.86987 -48.18044,100.13101 -86.26428,136.58906 -7.46885,7.15 -13.09716,13 -12.50736,13 0.5898,0 6.59879,-3.57391 13.35332,-7.94202 z m -111.80446,-0.66295 c 30.9967,-6.63917 59.48841,-20.77684 88.77983,-44.05283 22.13831,-17.59188 59.83127,-58.56906 81.07616,-88.1404 5.00635,-6.96846 13.67456,-24.22884 12.67152,-25.23188 -0.31086,-0.31087 -2.50843,1.96873 -4.88347,5.06577 -2.37505,3.09704 -11.33344,13.36267 -19.90755,22.81251 -34.2378,37.73477 -80.16011,71.88681 -131.7113,97.95261 -33.794,17.08724 -59.59966,23.32668 -75.35764,18.2204 -10.18821,-3.30143 -24.6694,-11.46223 -38.07692,-21.45807 -12.79891,-9.54208 -15.94783,-10.61356 -14.5244,-4.94215 2.14018,8.52716 16.68525,23.56166 30.79341,31.8296 6.25467,3.66548 18.22813,8.14996 26.5734,9.95266 7.57552,1.63643 32.87299,0.49651 44.56696,-2.00822 z m 196.69796,-43.69071 c 28.81895,-37.7957 58.63544,-109.61805 63.53238,-153.03764 1.74734,-15.49311 0.85751,-70.68246 -1.26835,-78.66667 -1.12852,-4.23841 -1.25507,-4.33619 -1.37902,-1.0655 -0.25388,6.6986 -10.55505,65.58787 -15.34651,87.73216 -12.51244,57.82777 -36.4686,119.86517 -60.85907,157.60197 -2.89533,4.47963 -5.26423,8.67372 -5.26423,9.32019 0,1.46146 14.70007,-14.16676 20.5848,-21.88451 z m -215.1689,12.94095 c 27.48438,-7.12192 72.84312,-30.20906 100.39355,-51.09931 18.65525,-14.14544 64.37846,-61.75073 71.97485,-74.93752 8.10696,-14.07311 1.83705,-11.07347 -25.20441,12.05823 -32.26924,27.60364 -54.93514,42.71893 -83.01562,55.36095 -33.34834,15.01364 -59.39949,21.23709 -88.89759,21.23707 -20.59284,-2e-5 -31.6897,-2.40948 -45.66667,-9.91562 -3.85,-2.06759 -7,-3.30143 -7,-2.74188 0,2.29664 11.34389,13.68411 15.99598,16.05743 17.65286,9.00581 32.30328,11.41025 61.97133,10.17078 11.75131,-0.49095 23.01602,-1.2497 25.03269,-1.68612 6.62926,-1.43461 3.90421,1.90358 -3.95407,4.84374 -15.18411,5.6811 -28.56104,8.13661 -48.7126,8.94184 -10.81666,0.43221 -19.66666,1.20333 -19.66666,1.71359 0,1.65016 12.74174,7.91882 20.1395,9.90819 9.43941,2.5384 17.05783,2.56378 26.60972,0.0886 z m -108.13436,-66.9899 c 0.0807,-2.61366 -4.79149,0.87523 -6.51997,4.66884 -1.58795,3.48517 -1.89973,12.22897 -0.56049,15.71896 0.57253,1.49198 1.91572,-1.30595 3.94819,-8.22428 1.69425,-5.76705 3.10378,-11.24064 3.13227,-12.16352 z m 123.40581,13.71581 c 20.37136,-3.89768 40.85847,-12.91624 62.92842,-27.70148 l 14.38423,-9.63638 -11.33333,-1.73565 c -14.00985,-2.14555 -30.96023,-7.87923 -40.82818,-13.81065 -9.72808,-5.84734 -29.3605,-24.32856 -35.84376,-33.74197 -2.80755,-4.07644 -5.54621,-7.41171 -6.08591,-7.41171 -1.88137,0 -4.05189,8.74299 -4.82637,19.44098 -0.90517,12.50314 0.89857,19.43469 8.21234,31.55902 2.54362,4.21666 4.0143,7.66666 3.26817,7.66666 -2.35946,0 -14.20527,-12.73844 -17.07285,-18.35937 -1.51403,-2.96775 -3.1475,-7.86427 -3.62992,-10.88115 -0.48241,-3.01689 -1.41155,-5.81554 -2.06473,-6.21923 -1.85529,-1.14663 -7.90263,13.35553 -9.52938,22.85245 -1.31109,7.65408 -1.15169,9.5572 1.48658,17.74876 1.62532,5.04646 5.37719,12.92279 8.33749,17.50294 2.96029,4.58016 5.11589,8.59401 4.79022,8.91969 -1.33736,1.33735 -10.44932,-3.72636 -16.13318,-8.96556 -3.34428,-3.08265 -6.08051,-5.27815 -6.08051,-4.87888 0,2.49693 5.80254,13.53744 8.56859,16.3035 3.10265,3.10264 4.18441,3.31019 17.25351,3.31019 7.66882,0 18.55818,-0.88297 24.19857,-1.96216 z m 275.71261,-94.03784 c 5.01017,-14.74306 7.67999,-29.27005 8.8216,-48 1.0199,-16.73304 -0.50281,-50.95241 -2.41972,-54.37774 -0.56396,-1.00775 -1.1123,7.66498 -1.21852,19.27274 -0.10623,11.60775 -0.8352,26.805 -1.61994,33.77167 -1.17444,10.42629 -7.49471,49.63471 -10.10167,62.66666 l -0.66681,3.33334 1.90337,-3.33334 c 1.04685,-1.83333 3.43261,-7.83333 5.30169,-13.33333 z m -91.51242,-12.0278 c 8.78152,-3.77782 10.23558,-7.11513 9.13864,-20.97463 l -0.92611,-11.70124 4.76739,-6.64816 c 8.48604,-11.83385 10.63028,-16.76947 10.5634,-24.31483 -0.0641,-7.23157 1.31928,-9.25943 2.72875,-4 2.12028,7.91177 0.8258,17.20634 -3.78676,27.18962 -3.83085,8.29138 -4.49163,11.00355 -3.83969,15.75998 0.97847,7.13869 2.09929,9.03023 4.74845,8.01366 1.39154,-0.53399 2.26006,-3.10464 2.65403,-7.85539 0.4549,-5.48548 1.90385,-9.11284 6.49165,-16.25143 l 5.90604,-9.18978 -0.19941,-15.99999 -0.19941,-16 3.79631,9.33333 c 4.21303,10.35786 4.70638,16.17833 2.01163,23.73301 -2.24379,6.29039 -1.21658,5.93611 5.53075,-1.90752 5.10736,-5.9372 5.34323,-6.62898 6.1373,-17.99999 1.03311,-14.79412 2.33846,-19.30775 8.22696,-28.4472 5.574,-8.65132 5.69968,-10.49937 1.34951,-19.84403 -1.82617,-3.92281 -3.32031,-8.83238 -3.32031,-10.91015 0,-5.29561 -4.46133,-6.57482 -8.7801,-2.51755 -3.72849,3.50273 -4.05204,2.70353 -1.16541,-2.8786 2.35489,-4.55386 1.6484,-6.5613 -2.30913,-6.5613 -3.38972,0 -11.21013,-4.68205 -12.22116,-7.31675 -0.64506,-1.68099 -1.34336,-1.67752 -5.42281,0.027 -2.57532,1.07604 -7.61854,1.95644 -11.20716,1.95644 -5.58383,0 -7.94539,0.94262 -16.37615,6.53657 -16.02564,10.63328 -18.56533,13.90413 -20.99304,27.03685 -0.76454,4.13579 -2.83138,11.02368 -4.59297,15.30643 -1.76159,4.28275 -3.60608,8.92269 -4.09886,10.31098 -1.94262,5.47281 -2.08686,0.68003 -0.30023,-9.97568 1.03423,-6.16833 2.29456,-14.20107 2.80072,-17.85053 1.01875,-7.34528 4.3809,-14.82406 8.22848,-18.30345 4.80752,-4.34746 22.2698,-13.11738 30.22156,-15.17789 8.08621,-2.09534 21.25011,-8.12766 27.75542,-12.71883 1.94654,-1.37378 4.94654,-2.49501 6.66667,-2.49162 3.01828,0.006 2.97617,0.14801 -1.20583,4.06759 -5.99211,5.61609 -5.85701,10.01029 0.34352,11.17352 2.94624,0.55272 6.66528,2.88578 10.05046,6.30496 4.69638,4.74355 5.90528,5.32124 9.59238,4.58382 6.11336,-1.22267 10.11724,-5.59602 10.97148,-11.98392 0.40346,-3.01701 1.25718,-13.11462 1.89716,-22.43913 1.1502,-16.75856 1.21145,-16.99394 5.32291,-20.4535 2.28762,-1.9249 5.33205,-5.99576 6.7654,-9.04633 2.09863,-4.46648 2.57713,-4.89743 2.45736,-2.21317 -0.36601,8.20257 0.1207,9.33333 4.01732,9.33333 3.53993,0 3.91525,-0.58229 6.66045,-10.33333 1.60002,-5.68334 3.52102,-14.3682 4.26889,-19.2997 0.74787,-4.9315 1.95066,-10.52056 2.67288,-12.42013 1.80247,-4.74085 1.90182,-4.6135 -3.59925,-4.6135 -5.01685,0 -15.06598,-4.09412 -17.62883,-7.18216 -1.11884,-1.34812 -0.21415,-1.76267 4.22544,-1.93619 8.91458,-0.34842 18.97382,-3.84763 23.66885,-8.23345 3.81711,-3.56571 4.21889,-4.60189 3.49186,-9.00543 -1.84464,-11.1727 -3.84502,-15.3756 -10.61022,-22.29256 -5.7193,-5.8476 -8.11163,-7.30978 -13.96703,-8.53655 -3.88609,-0.81418 -8.72141,-1.48033 -10.74516,-1.48033 -2.02374,0 -4.84348,-0.8511 -6.26609,-1.89134 -2.4979,-1.82651 -2.4676,-1.9212 0.88403,-2.7624 1.90883,-0.47909 6.7081,-0.28105 10.66506,0.44009 3.95695,0.72113 7.35742,1.15125 7.55659,0.95582 1.20588,-1.1832 -19.06035,-20.68197 -26.92791,-25.90818 -12.85154,-8.53693 -15.48851,-9.50065 -25.99599,-9.50065 -5.13762,0 -11.64443,-0.9465 -14.93726,-2.17282 -13.31431,-4.95852 -31.05079,-1.64917 -47.11008,8.79002 -4.43165,2.88076 -11.52546,6.5605 -15.76402,8.17721 -7.9025,3.01424 -17.43457,10.38181 -22.3341,17.26256 l -2.76138,3.878 5.73431,-0.43529 c 6.83703,-0.51899 19.06106,-6.41702 21.06668,-10.16455 0.78546,-1.46766 2.01711,-2.66847 2.737,-2.66847 1.78296,0 -4.46037,12.07562 -7.80663,15.0993 -1.55503,1.40512 -6.54371,3.02539 -11.81078,3.83602 -27.07977,4.16768 -35.53514,10.82326 -34.79799,27.39099 0.31496,7.07875 -0.15753,8.57677 -5.4876,17.39833 -7.62518,12.62011 -8.55053,19.36297 -3.48363,25.38463 3.29265,3.91309 9.67055,8.22406 12.16717,8.22406 0.54028,0 -0.5597,-1.65 -2.44441,-3.66667 -1.88471,-2.01666 -4.2283,-5.94655 -5.20799,-8.73309 -1.74657,-4.96778 -1.63929,-5.33791 5.51062,-19.01106 4.01053,-7.66955 9.28286,-15.88966 11.71629,-18.26691 l 4.42442,-4.32227 14.65942,0.32422 c 15.93529,0.35244 20.04899,-0.79815 24.89924,-6.96424 3.50474,-4.45556 4.42836,-4.24326 2.73036,0.62761 -3.19864,9.17564 -14.0735,14.12738 -25.67971,11.69295 -6.36073,-1.33417 -7.50261,-1.20203 -11.59034,1.34126 -2.49396,1.55168 -7.49494,5.83932 -11.11329,9.52808 -6.25687,6.37864 -6.60437,7.11653 -7.10095,15.07849 l -0.52212,8.37163 2.92013,-5.69332 c 3.29013,-6.41468 12.19338,-14.64937 17.19634,-15.90504 1.82569,-0.45822 6.64179,-0.0971 10.70243,0.80259 18.44263,4.086 23.82196,3.58839 31.2942,-2.89483 3.79639,-3.2939 5.56936,-6.35167 7.52388,-12.97606 l 2.55709,-8.66667 -0.37312,8.69376 c -0.42406,9.88066 -3.78311,17.64634 -9.47169,21.89732 -3.06633,2.29141 -5.63801,2.74225 -15.64242,2.74225 h -11.97279 l 3.73391,2.99689 c 8.02302,6.43936 21.3431,7.38528 31.69291,2.25066 9.03273,-4.48121 10.32846,-7.65179 13.41122,-32.81653 0.98008,-8.00046 5.25554,-14.28203 12.40867,-18.23101 11.72138,-6.47095 23.72302,-2.86981 39.47119,11.8435 5.91246,5.52393 12.42816,10.77393 14.47933,11.66667 6.49157,2.82534 19.40078,2.00201 27.46437,-1.75164 3.95658,-1.84181 7.42337,-3.11916 7.70398,-2.83856 0.96184,0.96185 -2.3351,7.99536 -4.61684,9.84932 -7.56237,6.14454 -21.85073,9.03197 -29.62323,5.98635 -3.73946,-1.4653 -10.88085,-8.60009 -17.62336,-17.60709 -6.46263,-8.63314 -12.07569,-12.01522 -19.94099,-12.01522 -3.58178,0 -8.44304,0.81719 -10.80282,1.81598 -7.41009,3.13635 -9.22476,6.37913 -10.34854,18.49265 -1.53465,16.54224 -4.93223,24.12655 -15.39858,34.3737 -9.93696,9.72885 -17.87672,23.96198 -17.87672,32.04651 0,2.64224 1.53807,9.25917 3.41794,14.70428 5.32233,15.41629 3.82016,20.43213 -10.95127,36.56687 l -6.10336,6.66667 0.70886,-5.79633 c 0.41519,-3.39502 2.79953,-9.18348 5.75537,-13.97232 6.88405,-11.15305 7.63917,-20.1011 2.54473,-30.15451 -4.18357,-8.25587 -3.80759,-11.64379 2.11855,-19.09033 4.7624,-5.98424 7.84251,-12.9383 7.84251,-17.70629 0,-3.44574 -0.0582,-3.46505 -7.66667,-2.543 -4.21666,0.511 -8.08106,1.16759 -8.58755,1.45907 -0.50649,0.29148 0.0935,2.31656 1.33333,4.50017 2.1391,3.76745 2.12422,4.19151 -0.29135,8.30354 -3.77654,6.4288 -6.89399,12.52144 -12.10965,23.66667 -2.57385,5.5 -7.98339,14.75083 -12.0212,20.55741 -8.58879,12.35112 -10.69481,18.75586 -9.24296,28.10925 1.70665,10.99491 1.11308,16.90261 -2.57481,25.62649 -4.24256,10.03599 -4.41071,15.53941 -0.66263,21.68778 2.58176,4.23514 2.68743,5.21639 1.1906,11.0567 -0.90343,3.52501 -1.2617,8.33359 -0.79616,10.68573 1.69145,8.54592 7.42905,11.73693 7.42905,4.13173 0,-5.20601 3.41319,-10.53662 10.29744,-16.08222 3.48635,-2.80842 7.34401,-6.30621 8.57258,-7.77288 1.22857,-1.46667 2.55656,-2.34552 2.95109,-1.95301 0.39452,0.39251 -2.5166,4.88804 -6.46917,9.99008 -9.42331,12.16377 -11.14129,18.16404 -8.21463,28.69068 2.52644,9.08708 2.80416,16.83245 0.79322,22.12163 l -1.4028,3.68966 3.06947,-2.56443 c 10.11447,-8.45025 10.40059,-8.88487 10.46132,-15.89073 0.10244,-11.81519 3.72169,-18.65908 15.20418,-28.75055 l 5.30992,-4.66666 -3.00467,4.66666 c -5.80878,9.02184 -9.51922,17.19126 -12.19719,26.85502 -3.26217,11.77194 -3.36338,16.06838 -0.57152,24.26202 2.10953,6.19114 2.06169,15.11046 -0.10747,20.03682 -0.94935,2.15606 -0.66889,2.35736 2.10653,1.51192 1.76094,-0.53641 5.2133,-2.48317 7.67192,-4.32613 l 4.47021,-3.35084 -1.00373,-8.82774 c -1.73749,-15.28114 -1.13546,-17.71197 6.80934,-27.4944 2.38231,-2.93334 5.95986,-8.33333 7.95012,-12 l 3.61865,-6.66667 -0.77521,7.11782 c -0.49835,4.57578 -2.46921,10.14698 -5.51848,15.59959 l -4.74327,8.48176 0.84192,14.40042 c 0.81848,13.99932 0.74498,14.54132 -2.63892,19.45962 -1.91447,2.78257 -3.48085,5.35975 -3.48085,5.72708 0,1.18199 9.82808,-1.01737 15.55421,-3.48076 z m 47.71108,-77.92937 c -1.06258,-2.54311 -1.93196,-5.51488 -1.93196,-6.60393 0,-4.20683 -3.09873,-8.30629 -10.08946,-13.34783 -7.9558,-5.73751 -13.37674,-11.04743 -9.91054,-9.70755 1.1,0.42521 6.0535,2.03932 11.00777,3.58691 5.73366,1.79104 9.68876,3.88286 10.8813,5.75502 1.57402,2.47104 3.72373,24.94122 2.38611,24.94122 -0.22619,0 -1.28064,-2.08073 -2.34322,-4.62384 z m -55.26529,-11.5923 c 0,-4.45927 5.0359,-16.44404 9.26895,-22.05884 7.22488,-9.58323 15.59701,-13.65511 28.15571,-13.69387 25.01865,-0.0772 34.27841,9.13288 28.46988,28.31716 l -2.45022,8.09252 -1.06339,-4.55375 c -2.98125,-12.76656 -3.84467,-14.5527 -8.0988,-16.75367 -6.20467,-3.21014 -16.69029,-5.76603 -23.73005,-5.78425 -5.81599,-0.015 -6.53553,0.42368 -14.73449,8.98418 -4.74096,4.95 -9.98833,11.25 -11.66083,14 -3.18073,5.22988 -4.15676,6.04008 -4.15676,3.45052 z m -48.56711,-9.44877 c -1.53598,-12.29359 0.67861,-17.52817 12.14061,-28.69647 11.39404,-11.10208 11.67319,-9.76263 1.63975,7.86804 -3.60158,6.32867 -7.96631,15.2786 -9.69941,19.88875 l -3.15108,8.38208 z m 5.90045,-45.9801 c 0,-5.53166 1.53068,-8.07801 13.33333,-22.18044 7.24375,-8.65522 7.3384,-8.71436 7.74816,-4.84165 0.58849,5.56178 -2.56997,11.23863 -12.45895,22.39305 l -8.62254,9.72593 z m 38.66666,-1.8769 c 0,-0.33104 2.08637,-4.47403 4.63638,-9.20665 4.52705,-8.40185 6.49581,-8.1025 2.88097,0.43806 -1.53731,3.63213 -7.51735,10.60752 -7.51735,8.76859 z m 67.51783,-8.47808 c -0.85259,-2.22182 0.23504,-6 1.72723,-6 0.52786,0 0.69557,1.8 0.37268,4 -0.66382,4.52288 -1.00654,4.84929 -2.09991,2 z m 12.58885,-16.79317 c -1.204,-2.48016 -1.31547,-4.77855 -0.39367,-8.11702 1.09785,-3.97609 0.91281,-4.8902 -1.26529,-6.25044 -1.40316,-0.87629 -2.24463,-2.08929 -1.86994,-2.69555 1.67322,-2.70734 -6.27223,0.0285 -12.74787,4.38947 -6.07823,4.09332 -8.22863,4.80004 -14.60547,4.80004 -5.46947,0 -8.01599,-0.62667 -9.48165,-2.33333 -3.6685,-4.2717 -4.21863,-6.37499 -0.87186,-3.33333 3.68991,3.35351 10.83807,3.98667 16.39966,1.45264 4.03202,-1.83711 4.53932,-3.83529 0.72015,-2.83656 -4.09176,1.07002 -10.25539,-2.09323 -11.92291,-6.119 -0.82185,-1.98411 -3.57332,-4.72712 -6.11439,-6.09558 -2.54106,-1.36845 -4.62011,-2.91205 -4.62011,-3.43023 0,-1.2265 10.44391,-2.63794 19.51943,-2.63794 9.25136,0 9.71,-3.01632 1.04166,-6.85073 -4.58412,-2.02778 -8.23964,-2.59054 -14.66947,-2.25836 -4.71013,0.24333 -8.56262,0.0585 -8.56108,-0.41074 0.007,-2.04527 12.93435,-6.66185 20.45118,-7.3033 10.0262,-0.8556 13.27134,0.72821 25.17693,12.28769 13.22943,12.84485 15.47631,13.28281 22.89753,4.4632 1.91243,-2.2728 3.47715,-3.41802 3.47715,-2.54493 0,3.46895 -6.0657,12.08079 -10.64219,15.10938 -3.92333,2.59633 -5.26755,4.69174 -7.07159,11.02341 -1.2251,4.29974 -2.43877,9.01771 -2.69704,10.48438 -0.42489,2.41287 -0.62943,2.33739 -2.14916,-0.79317 z m -14.77335,-25.17259 c 0,-3.0639 -8.09745,-5.36757 -18.86712,-5.36757 -13.46626,0 -12.72226,2.03377 1.69932,4.64519 12.15187,2.20044 17.1678,2.41149 17.1678,0.72238 z m 39.93701,-20.50937 c -2.60131,-0.93028 -7.40131,-3.51957 -10.66666,-5.75397 -8.16686,-5.58838 -13.99897,-8.47942 -22.60368,-11.20489 -4.03334,-1.27752 -6.0787,-2.37749 -4.54525,-2.44438 5.01184,-0.21863 15.39364,3.62149 22.44106,8.30071 10.41,6.91185 17.55761,10.24433 21.97238,10.24433 2.18593,0 4.34524,0.6 4.79847,1.33333 1.15048,1.86152 -5.65592,1.57775 -11.39632,-0.47513 z m -22.8032,-59.78052 c -1.94307,-1.69272 -4.60767,-4.87768 -5.92133,-7.07768 -1.94727,-3.2611 -1.39407,-2.95323 2.99471,1.66667 6.29531,6.62683 11.05497,7.31701 21.0156,3.04738 6.51368,-2.79209 7.83031,-2.01705 3.39391,1.99784 -1.77729,1.60842 -5.35031,2.6288 -10.33333,2.95099 -6.46284,0.41788 -8.1519,0.0262 -11.14956,-2.5852 z m -85.13381,-16.41051 c 0,-0.45294 1.86273,-3.14145 4.1394,-5.97446 5.32385,-6.62482 15.65041,-11.25085 22.93413,-10.2739 8.15842,1.09427 9.4202,3.58119 1.81698,3.58119 -7.34267,0 -13.82324,2.43157 -20.67477,7.75736 -5.98802,4.65457 -8.21574,5.98587 -8.21574,4.90981 z m -29.73035,103.47214 c 0.88726,-1.17662 2.30841,-5.43931 3.1581,-9.47265 0.84969,-4.03333 3.06315,-9.93468 4.91881,-13.11411 l 3.37392,-5.78079 -4.18258,-4.18258 c -3.67707,-3.67707 -4.41702,-3.94529 -6.12224,-2.21922 -1.06681,1.07986 -2.68903,4.78655 -3.60492,8.23709 -1.49206,5.6212 -1.41126,6.5544 0.77683,8.97221 2.22369,2.45715 2.24608,2.77369 0.2503,3.53954 -4.85545,1.86321 -12.51938,-6.41904 -14.13983,-15.28062 -1.14106,-6.23994 0.1554,-9.95823 4.94031,-14.16898 l 3.69499,-3.2516 -4.12668,-0.0421 c -7.52283,-0.0768 -9.20909,3.55109 -9.18969,19.77118 0.0156,13.06583 0.31586,14.72834 3.80008,21.04246 5.27641,9.56195 11.91781,11.96386 16.4526,5.9502 z m 169.69643,-48.1054 c 2.97525,-2.97524 4.46778,-7.68763 3.81109,-12.03278 -0.33911,-2.24377 -1.46346,-0.85992 -4.76473,5.86438 -4.32902,8.81774 -3.97642,11.09846 0.95364,6.1684 z"
       id="path1" />
    <path
       style="fill:#000000;fill-opacity:1;stroke-width:2.13528;paint-order:markers fill stroke"
       d="m 1100.4532,1069.5858 c -1.6404,-1.6883 -1.168,-3.2998 0.9672,-3.2998 3.1609,0 4.4676,-3.9035 6.7252,-20.09 2.6756,-19.1833 2.6564,-23.0794 -0.129,-26.1573 -1.2358,-1.3655 -1.7932,-2.9358 -1.2386,-3.4894 0.5547,-0.5536 8.318,-1.0066 17.2519,-1.0066 15.4385,0 16.3716,0.1583 18.8296,3.1945 4.2537,5.2544 3.3894,11.8341 -2.3022,17.5257 -3.0186,3.0186 -4.2478,5.1018 -3.2137,5.4465 6.514,2.1713 8.9941,13.1262 4.5182,19.9574 -3.9056,5.9606 -9.3709,7.757 -25.509,8.3847 -8.1866,0.3184 -15.3414,0.1089 -15.8996,-0.4657 z m 25.8874,-4.7996 c 4.4738,-1.5596 8.2797,-7.0876 8.2797,-12.026 0,-6.7839 -12.0358,-12.5112 -16.072,-7.6479 -0.8353,1.0065 -1.9161,5.6323 -2.4018,10.2795 -1.1326,10.8359 0.8412,12.6548 10.1941,9.3944 z m 5.1479,-28.5055 c 2.1802,-2.0481 3.1318,-4.4648 3.1318,-7.9532 0,-5.6659 -1.7678,-7.6581 -7.8809,-8.8807 -4.9309,-0.9862 -6.0079,0.825 -7.5346,12.6721 l -0.9155,7.104 h 5.0337 c 3.3059,0 6.1087,-1.0099 8.1655,-2.9422 z"
       id="path2" />
    <path
       style="fill:#000000;fill-opacity:1;stroke-width:2.13528;paint-order:markers fill stroke"
       d="m 1067.6611,1071.8284 c -1.0737,-6.3554 -2.0216,-6.6006 -10.6907,-2.7658 -7.1961,3.1831 -8.952,2.6589 -8.952,-2.6726 0,-3.2521 0.8722,-4.1289 6.0892,-6.1212 3.3491,-1.2791 6.0892,-3.003 6.0892,-3.831 0,-0.828 -1.6745,-3.278 -3.7211,-5.4445 l -3.7212,-3.939 13.6822,0.9529 c 7.5253,0.5241 15.6511,1.3556 18.0575,1.8477 l 4.3751,0.8948 -9.0948,12.1659 c -5.0021,6.6913 -9.5633,12.681 -10.1359,13.3106 -0.5726,0.6295 -1.4625,-1.3495 -1.9775,-4.3978 z"
       id="path3" />
    <path
       style="fill:#000000;fill-opacity:1;stroke-width:2.13528;paint-order:markers fill stroke"
       d="m 918.79395,1123.1242 c -0.52097,-1.6414 -0.43004,-3.4951 0.20207,-4.1192 0.63211,-0.6242 17.89457,-8.38 38.36104,-17.2353 20.46647,-8.8553 44.71004,-19.3689 53.87464,-23.3636 13.8857,-6.0526 16.8705,-6.9349 17.9086,-5.2939 2.4369,3.8524 1.2886,6.6496 -3.7872,9.2254 -9.8365,4.9916 -98.04714,42.2581 -101.80492,43.0096 -3.09288,0.6186 -3.98469,0.2016 -4.75423,-2.223 z"
       id="path4" />
    <path
       style="fill:#000000;fill-opacity:1;stroke-width:2.13528;paint-order:markers fill stroke"
       d="m 868.98966,1168.1788 c -2.23425,-0.5792 -2.15288,-1.0123 0.95621,-5.0885 1.86906,-2.4505 8.01988,-12.9033 13.66849,-23.2284 10.95692,-20.0283 14.63348,-24.974 16.8889,-22.7185 0.74907,0.749 4.34886,11.0287 7.99955,22.8438 4.97718,16.108 7.42781,22.0779 9.79642,23.8645 1.73734,1.3105 2.72459,2.8169 2.1939,3.3476 -1.53313,1.5331 -13.9109,2.3488 -19.55426,1.2886 l -5.15035,-0.9675 3.72117,-2.9693 c 3.92914,-3.1353 4.80571,-7.3311 2.09739,-10.0394 -0.9429,-0.9429 -5.46218,-1.6238 -10.77763,-1.6238 -7.66524,0 -9.38163,0.4257 -10.55461,2.6174 -2.09905,3.9221 -1.69257,7.9014 0.96726,9.469 4.85736,2.8628 -4.31596,5.2619 -12.25244,3.2045 z m 31.5349,-21.1345 c 0,-1.8169 -4.55312,-15.3897 -5.49233,-16.3726 -1.16579,-1.22 -7.99891,11.6461 -8.026,15.1122 -0.009,1.1294 2.23499,1.6914 6.75255,1.6914 3.72118,0 6.76578,-0.1939 6.76578,-0.431 z"
       id="path5" />
    <circle
       style="fill:#1a1a1a;fill-opacity:0;stroke-width:1.83187;paint-order:markers fill stroke"
       id="path6"
       cx="-951.1557"
       cy="106.98589"
       r="480"
       transform="rotate(-128.46237)" />
    <text
       xml:space="preserve"
       id="text7"
       style="font-style:normal;font-variant:normal;font-weight:normal;font-stretch:normal;font-size:146.667px;font-family:Krungthep;-inkscape-font-specification:'Krungthep, Normal';font-variant-ligatures:normal;font-variant-caps:normal;font-variant-numeric:normal;font-variant-east-asian:normal;text-align:start;writing-mode:lr-tb;direction:ltr;text-anchor:start;white-space:pre;fill:#000000;fill-opacity:1;stroke-width:1.578;paint-order:markers fill stroke"><textPath
         xlink:href="#path6"
         id="textPath7">I + I = II!</textPath></text>
    <text
       xml:space="preserve"
       id="text8"
       style="font-style:normal;font-variant:normal;font-weight:bold;font-stretch:normal;font-size:146.667px;font-family:Kefa;-inkscape-font-specification:'Kefa, Bold';font-variant-ligatures:normal;font-variant-caps:normal;font-variant-numeric:normal;font-variant-east-asian:normal;text-align:start;writing-mode:lr-tb;direction:ltr;white-space:pre;shape-inside:url(#rect8);display:inline;fill:#000000;fill-opacity:1;stroke-width:1.578;paint-order:markers fill stroke" />
    <path
       style="display:inline;fill:#917c6f;fill-opacity:1;stroke-width:2.67291;paint-order:markers fill stroke"
       d=""
       id="path9" />
    <g
       id="g23"
       transform="matrix(1.4411372,0,0,1.3892558,-50.618237,-57.571936)">
      <path
         style="fill:#1a1a1a;fill-opacity:1;stroke-width:0.389359;paint-order:markers fill stroke"
         d="m 151.62292,701.58557 c -4.25934,-1.49927 -5.97195,-1.9847 -8.5126,-2.41286 -1.53709,-0.25904 -1.76793,-0.37173 -2.0973,-1.02386 -0.31481,-0.62327 -0.38113,-3.04649 -0.44382,-16.21583 -0.0405,-8.51568 -0.0405,-15.48303 0,-15.483 0.44803,3.3e-4 11.4229,4.36634 12.78429,5.08583 2.41195,1.2747 2.83415,1.87792 2.83415,4.04932 0,0.94916 -0.12495,1.82171 -0.28359,1.98035 -0.41984,0.41985 -1.0489,0.13581 -3.97595,-1.79526 -5.41833,-3.57463 -6.47373,-3.54999 -6.47373,0.15112 0,3.47988 0.59865,4.71223 2.59079,5.33325 1.60312,0.49974 2.4998,1.33186 3.06604,2.84529 0.28145,0.75222 0.51172,1.65405 0.51172,2.00405 0,0.74637 -0.12097,0.73475 -2.92965,-0.28155 -1.07327,-0.38835 -2.05615,-0.59885 -2.39689,-0.51333 -0.88047,0.22098 -1.15795,1.67842 -1.04671,5.49767 0.1464,5.02678 0.49293,5.29384 6.73789,5.19271 l 3.94239,-0.0639 0.18703,0.98697 c 0.24384,1.28676 -0.0223,5.17551 -0.38632,5.64436 -0.24419,0.31453 -0.81052,0.17923 -4.10774,-0.98138 z"
         id="path17" />
      <path
         style="fill:#1a1a1a;fill-opacity:1;stroke-width:0.389359;paint-order:markers fill stroke"
         d="m 166.89812,706.70541 c -3.69321,-1.47575 -5.95928,-4.41742 -7.17782,-9.31775 -0.47452,-1.90826 -0.54687,-2.87949 -0.55845,-7.49721 -0.007,-2.91773 0.0748,-5.72044 0.18256,-6.22825 0.23842,-1.12391 0.91919,-1.37499 2.51596,-0.92792 2.0261,0.56727 1.95928,0.27903 2.10813,9.09383 0.14279,8.45602 0.21023,8.88337 1.50775,9.55434 1.14586,0.59255 1.87258,0.45295 2.3441,-0.4503 0.34685,-0.66445 0.44856,-1.90159 0.59335,-7.2172 0.17388,-6.38356 0.33689,-7.56953 1.07962,-7.85455 0.68223,-0.26179 2.69282,0.255 3.13985,0.80706 0.23231,0.28689 0.50124,1.15278 0.59763,1.9242 0.21412,1.7138 -0.0495,10.05359 -0.37517,11.8669 -0.96066,5.34948 -2.9591,7.44498 -5.95751,6.24685 z"
         id="path18" />
      <path
         style="fill:#1a1a1a;fill-opacity:1;stroke-width:0.389359;paint-order:markers fill stroke"
         d="m 167.33215,682.81718 c -0.2842,-0.28421 -0.18159,-1.29015 0.33999,-3.33295 0.77232,-3.02491 1.182,-3.90482 1.81805,-3.90482 0.64861,0 2.81566,1.32701 3.01488,1.84619 0.22962,0.59838 -1.32867,3.60065 -2.39575,4.61574 -0.73437,0.69858 -1.19728,0.94033 -1.80059,0.94033 -0.44664,0 -0.8861,-0.074 -0.97658,-0.16449 z"
         id="path19" />
      <path
         style="fill:#1a1a1a;fill-opacity:1;stroke-width:0.389359;paint-order:markers fill stroke"
         d="m 177.5976,717.53447 c -1.18762,-0.53912 -2.03841,-1.73182 -2.03979,-2.85954 -5.6e-4,-0.45375 0.30028,-1.16287 0.75656,-1.78331 1.04192,-1.4168 1.1225,-2.72099 0.49979,-8.09 -0.60351,-5.2036 -0.63855,-7.26538 -0.16168,-9.51519 1.1175,-5.27222 4.45201,-7.18441 8.49839,-4.87343 3.92023,2.23894 5.95479,6.39983 5.94711,12.16244 -0.006,4.39067 -0.85425,7.01031 -2.83304,8.74771 -1.06358,0.93384 -1.26874,0.94285 -3.5786,0.15722 -2.03756,-0.69302 -2.77923,-0.76296 -3.16474,-0.29845 -0.14534,0.17513 -0.53919,1.47978 -0.87521,2.89922 -1.02151,4.31503 -1.05843,4.35685 -3.04879,3.45333 z m 8.15477,-11.3514 c 2.17495,-2.58478 1.91994,-8.65827 -0.46393,-11.04936 -1.35279,-1.35688 -3.24464,-0.91717 -3.74508,0.87043 -0.36449,1.30201 -0.19952,6.50566 0.2535,7.99587 0.85694,2.81895 2.60749,3.78509 3.95551,2.18306 z"
         id="path20" />
      <path
         style="fill:#1a1a1a;fill-opacity:1;stroke-width:0.389359;paint-order:markers fill stroke"
         d="m 208.15574,728.85149 c -0.59477,-0.41184 -1.67735,-1.08513 -2.40573,-1.4962 -0.72837,-0.41107 -1.32744,-0.82008 -1.33125,-0.90891 -0.004,-0.0888 -0.0462,-5.10251 -0.0941,-11.14151 -0.052,-6.54655 -0.19573,-11.52798 -0.35597,-12.3371 -0.58264,-2.942 -1.54002,-3.981 -2.86708,-3.11148 -1.37021,0.8978 -1.57567,1.91845 -1.86807,9.28003 -0.24773,6.23674 -0.41314,7.66688 -0.90576,7.83109 -0.15776,0.0526 -0.83621,-0.43877 -1.50766,-1.09189 -1.07936,-1.04991 -1.26513,-1.38764 -1.60325,-2.9147 -1.27648,-5.76492 -1.08474,-18.05703 0.3033,-19.44508 0.45524,-0.45524 1.79992,0.44496 2.68565,1.79792 0.43373,0.66254 1.00454,1.27315 1.26845,1.35691 0.28636,0.0909 0.98012,-0.1012 1.72049,-0.47638 0.68235,-0.34577 1.50983,-0.62868 1.83883,-0.62868 1.21154,0 4.60156,3.42065 5.09316,5.13917 0.14254,0.4983 0.36337,1.73876 0.49073,2.75657 0.51324,4.10184 1.22518,26.16012 0.84389,26.14685 -0.12329,-0.004 -0.7108,-0.34477 -1.30558,-0.75661 z"
         id="path21" />
      <path
         style="fill:#1a1a1a;fill-opacity:1;stroke-width:0.389359;paint-order:markers fill stroke"
         d="m 225.54377,725.78377 c -2.01399,-0.69238 -3.74136,-3.32732 -4.84766,-7.39463 -0.79586,-2.92597 -1.27434,-3.73046 -2.04325,-3.4354 -0.57684,0.22135 -0.89953,1.42889 -1.27513,4.77168 -0.21798,1.93999 -0.47477,3.19402 -0.7002,3.41945 -0.50439,0.50439 -2.7448,0.17554 -3.36905,-0.49451 -0.71553,-0.76803 -0.81525,-2.47547 -0.68666,-11.75661 0.13605,-9.81839 0.23292,-10.3934 1.75105,-10.3934 1.09782,0 1.98517,0.71982 2.33666,1.89549 0.1549,0.51812 0.44879,2.37271 0.6531,4.12129 0.2043,1.74859 0.40875,3.21654 0.45431,3.26211 0.0456,0.0456 0.74002,-0.77441 1.54321,-1.82217 2.01088,-2.62317 3.56065,-4.24908 4.05013,-4.24908 0.22627,0 0.96056,0.34075 1.63174,0.75722 3.00542,1.86484 3.0947,3.37354 0.35674,6.02819 -1.667,1.61627 -2.05438,2.39829 -2.03873,4.11562 0.0164,1.80364 0.82296,3.56388 2.5046,5.46632 0.69982,0.7917 1.49197,1.86985 1.76034,2.3959 0.49434,0.96898 0.63445,2.33765 0.29409,2.87292 -0.37572,0.5909 -1.38947,0.77851 -2.37529,0.43961 z"
         id="path22" />
      <path
         style="fill:#1a1a1a;fill-opacity:1;stroke-width:0.389359;paint-order:markers fill stroke"
         d="m 243.23581,732.58556 c -0.43557,-0.26559 -1.01886,-0.92766 -1.2962,-1.47128 -0.27733,-0.54362 -0.72094,-1.10437 -0.98579,-1.24611 -0.26485,-0.14175 -1.68875,-0.35476 -3.16423,-0.47337 -1.54747,-0.12439 -2.98784,-0.37743 -3.40383,-0.59798 -2.53227,-1.34254 -4.0432,-4.42706 -4.5328,-9.2536 -0.6776,-6.67979 1.73815,-11.76569 5.23127,-11.01346 1.25722,0.27074 2.04335,0.75819 3.82126,2.3694 0.90941,0.82414 1.91185,1.59667 2.22765,1.71674 0.60564,0.23026 2.06581,-0.22282 2.38559,-0.74025 0.4966,-0.80351 2.40413,0.17747 2.9722,1.52851 0.36404,0.86578 0.26078,1.35811 -0.9937,4.73824 -0.76312,2.05616 -0.9357,2.87867 -1.03547,4.93484 -0.14546,2.99813 0.10687,4.02896 1.41034,5.76152 1.42963,1.90027 1.32644,3.40157 -0.27212,3.95883 -1.0824,0.37733 -1.45193,0.34419 -2.36417,-0.21203 z m -3.61146,-7.60016 c 1.4307,-2.83422 0.64005,-9.00269 -1.42462,-11.11448 -2.04389,-2.09054 -3.91367,0.17636 -3.91689,4.74877 -0.002,2.97409 0.56821,4.66197 2.11465,6.25858 1.05239,1.08652 1.40601,1.30725 1.98778,1.24075 0.55011,-0.0629 0.82598,-0.31527 1.23908,-1.13362 z"
         id="path23" />
    </g>
  </g>
</svg>
